<?xml version="1.0" encoding="UTF-8" standalone="no"?>
<svg xmlns:dc="http://purl.org/dc/elements/1.1/" xmlns:cc="http://creativecommons.org/ns#" xmlns:rdf="http://www.w3.org/1999/02/22-rdf-syntax-ns#" xmlns:svg="http://www.w3.org/2000/svg" xmlns="http://www.w3.org/2000/svg" xmlns:sodipodi="http://sodipodi.sourceforge.net/DTD/sodipodi-0.dtd" xmlns:inkscape="http://www.inkscape.org/namespaces/inkscape" width="32" height="32" viewBox="0 0 32 32" id="svg7727" version="1.1" inkscape:version="0.91 r13725" sodipodi:docname="football-soccer-game-sports.svg">
  <defs id="defs7729">
    <pattern y="0" x="0" height="6" width="6" patternUnits="userSpaceOnUse" id="EMFhbasepattern"/>
    <pattern y="0" x="0" height="6" width="6" patternUnits="userSpaceOnUse" id="EMFhbasepattern-6"/>
    <pattern y="0" x="0" height="6" width="6" patternUnits="userSpaceOnUse" id="EMFhbasepattern-9"/>
    <pattern y="0" x="0" height="6" width="6" patternUnits="userSpaceOnUse" id="EMFhbasepattern-0"/>
    <pattern y="0" x="0" height="6" width="6" patternUnits="userSpaceOnUse" id="EMFhbasepattern-1"/>
    <pattern y="0" x="0" height="6" width="6" patternUnits="userSpaceOnUse" id="EMFhbasepattern-2"/>
    <pattern y="0" x="0" height="6" width="6" patternUnits="userSpaceOnUse" id="EMFhbasepattern-5"/>
    <pattern y="0" x="0" height="6" width="6" patternUnits="userSpaceOnUse" id="EMFhbasepattern-19"/>
    <pattern y="0" x="0" height="6" width="6" patternUnits="userSpaceOnUse" id="EMFhbasepattern-17"/>
    <pattern y="0" x="0" height="6" width="6" patternUnits="userSpaceOnUse" id="EMFhbasepattern-8"/>
    <pattern y="0" x="0" height="6" width="6" patternUnits="userSpaceOnUse" id="EMFhbasepattern-22"/>
    <inkscape:path-effect effect="fillet-chamfer" id="path-effect6467-5-5-4" is_visible="true" fillet_chamfer_values="0,0 | 0,1 | 0,1" method="auto" radius="0" chamfer_steps="1" helper_size="0" flexible="false" use_knot_distance="false" ignore_radius_0="false" only_selected="true" hide_knots="false"/>
    <pattern y="0" x="0" height="6" width="6" patternUnits="userSpaceOnUse" id="EMFhbasepattern-01"/>
    <pattern y="0" x="0" height="6" width="6" patternUnits="userSpaceOnUse" id="EMFhbasepattern-97"/>
    <pattern y="0" x="0" height="6" width="6" patternUnits="userSpaceOnUse" id="EMFhbasepattern-977"/>
    <pattern y="0" x="0" height="6" width="6" patternUnits="userSpaceOnUse" id="EMFhbasepattern-60"/>
    <pattern y="0" x="0" height="6" width="6" patternUnits="userSpaceOnUse" id="EMFhbasepattern-04"/>
    <inkscape:path-effect effect="fillet-chamfer" id="path-effect8111-9-1" is_visible="true" fillet_chamfer_values="0,0 | -0.27698396,1 | -0.25,1 | -0.27698396,1" method="auto" radius="5" chamfer_steps="1" helper_size="0" flexible="false" use_knot_distance="false" ignore_radius_0="false" only_selected="false" hide_knots="false"/>
  </defs>
  <sodipodi:namedview id="base" pagecolor="#ffffff" bordercolor="#666666" borderopacity="1.0" inkscape:pageopacity="0.0" inkscape:pageshadow="2" inkscape:zoom="8" inkscape:cx="1.606698" inkscape:cy="19.64245" inkscape:document-units="px" inkscape:current-layer="layer1" showgrid="true" units="px" inkscape:window-width="1366" inkscape:window-height="716" inkscape:window-x="-8" inkscape:window-y="-8" inkscape:window-maximized="1" inkscape:snap-global="false">
    <inkscape:grid type="xygrid" id="grid4443" empspacing="2"/>
  </sodipodi:namedview>
  
  <g inkscape:label="Layer 1" inkscape:groupmode="layer" id="layer1" transform="translate(0,-1020.3622)">
    <g transform="matrix(3.7345327,0,0,3.734483,5262.3883,-442.49636)" id="g46885">
      <path inkscape:connector-curvature="0" style="color:#000000;font-style:normal;font-variant:normal;font-weight:normal;font-stretch:normal;font-size:medium;line-height:normal;font-family:sans-serif;text-indent:0;text-align:start;text-decoration:none;text-decoration-line:none;text-decoration-style:solid;text-decoration-color:#000000;letter-spacing:normal;word-spacing:normal;text-transform:none;direction:ltr;block-progression:tb;writing-mode:lr-tb;baseline-shift:baseline;text-anchor:start;white-space:normal;clip-rule:nonzero;display:inline;overflow:visible;visibility:visible;opacity:1;isolation:auto;mix-blend-mode:normal;color-interpolation:sRGB;color-interpolation-filters:linearRGB;solid-color:#000000;solid-opacity:1;fill:#000000;fill-opacity:1;fill-rule:evenodd;stroke:none;stroke-width:0.26777294;stroke-linecap:round;stroke-linejoin:round;stroke-miterlimit:4;stroke-dasharray:none;stroke-dashoffset:0;stroke-opacity:1;color-rendering:auto;image-rendering:auto;shape-rendering:auto;text-rendering:auto;enable-background:accumulate" d="m -1404.7502,391.86338 c -0.3975,-0.0104 -0.8026,0.04 -1.1851,0.15794 a 0.13389986,0.13389986 0 0 0 -0.024,0.004 c -0.5708,0.18015 -1.1391,0.44351 -1.6056,0.83418 -0.5249,0.44004 -1.004,0.9943 -1.2556,1.6443 -0.3095,0.80115 -0.3639,1.71216 -0.2171,2.55066 0.1027,0.58245 0.3823,1.13673 0.7406,1.59776 0.3236,0.41633 0.7444,0.78298 1.2321,1.00415 0.8285,0.37572 1.7859,0.55768 2.6955,0.45501 0.8006,-0.0904 1.5512,-0.47284 2.2013,-0.90845 0.498,-0.33375 1.0006,-0.75005 1.2871,-1.30278 0.2996,-0.57538 0.3319,-1.24414 0.3321,-1.85717 l 0,-0.002 c 0.01,-0.51475 -0.014,-1.06483 -0.2207,-1.56428 -0.2038,-0.49007 -0.5204,-0.93941 -0.8996,-1.31639 a 0.13389983,0.13389983 0 0 0 -0.081,-0.0785 c -0.072,-0.0681 -0.1453,-0.13451 -0.2212,-0.19717 -0.4762,-0.39302 -1.0671,-0.61837 -1.6313,-0.80646 -0.367,-0.12244 -0.7548,-0.20451 -1.1479,-0.21495 z" id="path32798"/>
      <path inkscape:connector-curvature="0" style="color:#000000;font-style:normal;font-variant:normal;font-weight:normal;font-stretch:normal;font-size:medium;line-height:normal;font-family:sans-serif;text-indent:0;text-align:start;text-decoration:none;text-decoration-line:none;text-decoration-style:solid;text-decoration-color:#000000;letter-spacing:normal;word-spacing:normal;text-transform:none;direction:ltr;block-progression:tb;writing-mode:lr-tb;baseline-shift:baseline;text-anchor:start;white-space:normal;clip-rule:nonzero;display:inline;overflow:visible;visibility:visible;opacity:1;isolation:auto;mix-blend-mode:normal;color-interpolation:sRGB;color-interpolation-filters:linearRGB;solid-color:#000000;solid-opacity:1;fill:#9cc055;fill-opacity:1;fill-rule:evenodd;stroke:none;stroke-width:0.26777294;stroke-linecap:round;stroke-linejoin:round;stroke-miterlimit:4;stroke-dasharray:none;stroke-dashoffset:0;stroke-opacity:1;color-rendering:auto;image-rendering:auto;shape-rendering:auto;text-rendering:auto;enable-background:accumulate" d="m -1404.7602,392.13063 c 0.3601,0.01 0.7253,0.0855 1.0727,0.20135 0.066,0.0221 0.1317,0.0469 0.1977,0.0701 l -0.021,0.10407 -1.2264,0.23221 a 0.13389983,0.13389983 0 0 0 -0.019,-5.2e-4 l -0.9205,-0.28242 -0.052,-0.21495 c 0.3128,-0.0811 0.6414,-0.11777 0.966,-0.10931 l 0,-5.2e-4 z" id="path32796"/>
      <path inkscape:connector-curvature="0" style="color:#000000;font-style:normal;font-variant:normal;font-weight:normal;font-stretch:normal;font-size:medium;line-height:normal;font-family:sans-serif;text-indent:0;text-align:start;text-decoration:none;text-decoration-line:none;text-decoration-style:solid;text-decoration-color:#000000;letter-spacing:normal;word-spacing:normal;text-transform:none;direction:ltr;block-progression:tb;writing-mode:lr-tb;baseline-shift:baseline;text-anchor:start;white-space:normal;clip-rule:nonzero;display:inline;overflow:visible;visibility:visible;opacity:1;isolation:auto;mix-blend-mode:normal;color-interpolation:sRGB;color-interpolation-filters:linearRGB;solid-color:#000000;solid-opacity:1;fill:#fd982f;fill-opacity:1;fill-rule:evenodd;stroke:none;stroke-width:0.26777294;stroke-linecap:round;stroke-linejoin:round;stroke-miterlimit:4;stroke-dasharray:none;stroke-dashoffset:0;stroke-opacity:1;color-rendering:auto;image-rendering:auto;shape-rendering:auto;text-rendering:auto;enable-background:accumulate" d="m -1405.9871,392.31839 0.068,0.27561 a 0.13389983,0.13389983 0 0 0 0.092,0.0952 l 0.9393,0.28765 -0.02,1.51669 -0.8937,0.89067 -1.5052,-0.83157 0.3373,-1.29442 a 0.13389983,0.13389983 0 0 0 -0.01,-0.0884 l -0.1391,-0.31065 c 0.3429,-0.23162 0.7324,-0.40676 1.1317,-0.54078 z" id="path32794"/>
      <path inkscape:connector-curvature="0" style="color:#000000;font-style:normal;font-variant:normal;font-weight:normal;font-stretch:normal;font-size:medium;line-height:normal;font-family:sans-serif;text-indent:0;text-align:start;text-decoration:none;text-decoration-line:none;text-decoration-style:solid;text-decoration-color:#000000;letter-spacing:normal;word-spacing:normal;text-transform:none;direction:ltr;block-progression:tb;writing-mode:lr-tb;baseline-shift:baseline;text-anchor:start;white-space:normal;clip-rule:nonzero;display:inline;overflow:visible;visibility:visible;opacity:1;isolation:auto;mix-blend-mode:normal;color-interpolation:sRGB;color-interpolation-filters:linearRGB;solid-color:#000000;solid-opacity:1;fill:#fd982f;fill-opacity:1;fill-rule:evenodd;stroke:none;stroke-width:0.26777294;stroke-linecap:round;stroke-linejoin:round;stroke-miterlimit:4;stroke-dasharray:none;stroke-dashoffset:0;stroke-opacity:1;color-rendering:auto;image-rendering:auto;shape-rendering:auto;text-rendering:auto;enable-background:accumulate" d="m -1403.2367,392.49411 c 0.3978,0.15371 0.7786,0.33907 1.092,0.59779 0.051,0.0421 0.097,0.0907 0.1465,0.13546 l -0.2343,0.23953 a 0.13389983,0.13389983 0 0 0 -0.037,0.1114 l 0.1585,1.13124 -1.5721,0.42938 -0.9566,-0.65793 0.019,-1.49211 1.2452,-0.23692 a 0.13389983,0.13389983 0 0 0 0.1057,-0.10355 l 0.033,-0.15429 z" id="path32792"/>
      <path inkscape:connector-curvature="0" style="color:#000000;font-style:normal;font-variant:normal;font-weight:normal;font-stretch:normal;font-size:medium;line-height:normal;font-family:sans-serif;text-indent:0;text-align:start;text-decoration:none;text-decoration-line:none;text-decoration-style:solid;text-decoration-color:#000000;letter-spacing:normal;word-spacing:normal;text-transform:none;direction:ltr;block-progression:tb;writing-mode:lr-tb;baseline-shift:baseline;text-anchor:start;white-space:normal;clip-rule:nonzero;display:inline;overflow:visible;visibility:visible;opacity:1;isolation:auto;mix-blend-mode:normal;color-interpolation:sRGB;color-interpolation-filters:linearRGB;solid-color:#000000;solid-opacity:1;fill:#9cc055;fill-opacity:1;fill-rule:evenodd;stroke:none;stroke-width:0.26777294;stroke-linecap:round;stroke-linejoin:round;stroke-miterlimit:4;stroke-dasharray:none;stroke-dashoffset:0;stroke-opacity:1;color-rendering:auto;image-rendering:auto;shape-rendering:auto;text-rendering:auto;enable-background:accumulate" d="m -1407.3411,393.02286 0.095,0.21339 -0.3421,1.31429 -0.9199,1.19348 -0.3222,0.007 c 0.034,-0.39637 0.1181,-0.78643 0.2579,-1.14903 0.2288,-0.59084 0.6762,-1.11706 1.1772,-1.53709 0.017,-0.0146 0.036,-0.0276 0.054,-0.0418 z" id="path32790"/>
      <path inkscape:connector-curvature="0" style="color:#000000;font-style:normal;font-variant:normal;font-weight:normal;font-stretch:normal;font-size:medium;line-height:normal;font-family:sans-serif;text-indent:0;text-align:start;text-decoration:none;text-decoration-line:none;text-decoration-style:solid;text-decoration-color:#000000;letter-spacing:normal;word-spacing:normal;text-transform:none;direction:ltr;block-progression:tb;writing-mode:lr-tb;baseline-shift:baseline;text-anchor:start;white-space:normal;clip-rule:nonzero;display:inline;overflow:visible;visibility:visible;opacity:1;isolation:auto;mix-blend-mode:normal;color-interpolation:sRGB;color-interpolation-filters:linearRGB;solid-color:#000000;solid-opacity:1;fill:#9cc055;fill-opacity:1;fill-rule:evenodd;stroke:none;stroke-width:0.26777294;stroke-linecap:round;stroke-linejoin:round;stroke-miterlimit:4;stroke-dasharray:none;stroke-dashoffset:0;stroke-opacity:1;color-rendering:auto;image-rendering:auto;shape-rendering:auto;text-rendering:auto;enable-background:accumulate" d="m -1401.8026,393.40831 c 0.3303,0.3415 0.6049,0.74187 0.7829,1.16995 0.1395,0.33726 0.1885,0.71668 0.1998,1.10091 l -0.2255,-0.0267 -0.7891,-0.89694 -0.1601,-1.15007 0.192,-0.19717 z" id="path32788"/>
      <path inkscape:connector-curvature="0" style="color:#000000;font-style:normal;font-variant:normal;font-weight:normal;font-stretch:normal;font-size:medium;line-height:normal;font-family:sans-serif;text-indent:0;text-align:start;text-decoration:none;text-decoration-line:none;text-decoration-style:solid;text-decoration-color:#000000;letter-spacing:normal;word-spacing:normal;text-transform:none;direction:ltr;block-progression:tb;writing-mode:lr-tb;baseline-shift:baseline;text-anchor:start;white-space:normal;clip-rule:nonzero;display:inline;overflow:visible;visibility:visible;opacity:1;isolation:auto;mix-blend-mode:normal;color-interpolation:sRGB;color-interpolation-filters:linearRGB;solid-color:#000000;solid-opacity:1;fill:#9cc055;fill-opacity:1;fill-rule:evenodd;stroke:none;stroke-width:0.26777294;stroke-linecap:round;stroke-linejoin:round;stroke-miterlimit:4;stroke-dasharray:none;stroke-dashoffset:0;stroke-opacity:1;color-rendering:auto;image-rendering:auto;shape-rendering:auto;text-rendering:auto;enable-background:accumulate" d="m -1404.7591,394.7247 0.9121,0.62707 -0.064,1.16995 -1.3865,0.23221 -0.3305,-1.16629 0.8692,-0.86294 z" id="path32786"/>
      <path inkscape:connector-curvature="0" style="color:#000000;font-style:normal;font-variant:normal;font-weight:normal;font-stretch:normal;font-size:medium;line-height:normal;font-family:sans-serif;text-indent:0;text-align:start;text-decoration:none;text-decoration-line:none;text-decoration-style:solid;text-decoration-color:#000000;letter-spacing:normal;word-spacing:normal;text-transform:none;direction:ltr;block-progression:tb;writing-mode:lr-tb;baseline-shift:baseline;text-anchor:start;white-space:normal;clip-rule:nonzero;display:inline;overflow:visible;visibility:visible;opacity:1;isolation:auto;mix-blend-mode:normal;color-interpolation:sRGB;color-interpolation-filters:linearRGB;solid-color:#000000;solid-opacity:1;fill:#fd982f;fill-opacity:1;fill-rule:evenodd;stroke:none;stroke-width:0.26777294;stroke-linecap:round;stroke-linejoin:round;stroke-miterlimit:4;stroke-dasharray:none;stroke-dashoffset:0;stroke-opacity:1;color-rendering:auto;image-rendering:auto;shape-rendering:auto;text-rendering:auto;enable-background:accumulate" d="m -1407.4311,394.79007 1.5387,0.8504 0.3556,1.25676 -0.9445,1.33469 -1.4853,-0.39225 a 0.13389983,0.13389983 0 0 0 -0.053,-0.004 0.13389983,0.13389983 0 0 0 -0.066,0.0293 c 0,0 -0.085,0.0704 -0.1758,0.14068 -0.035,0.0273 -0.069,0.0514 -0.1004,0.0743 -0.1981,-0.33525 -0.3487,-0.70045 -0.4142,-1.07215 -0.056,-0.32195 -0.079,-0.65551 -0.07,-0.98794 l 0.4121,-0.01 a 0.13389983,0.13389983 0 0 0 0.103,-0.0513 l 0.899,-1.1689 z" id="path32784"/>
      <path inkscape:connector-curvature="0" style="color:#000000;font-style:normal;font-variant:normal;font-weight:normal;font-stretch:normal;font-size:medium;line-height:normal;font-family:sans-serif;text-indent:0;text-align:start;text-decoration:none;text-decoration-line:none;text-decoration-style:solid;text-decoration-color:#000000;letter-spacing:normal;word-spacing:normal;text-transform:none;direction:ltr;block-progression:tb;writing-mode:lr-tb;baseline-shift:baseline;text-anchor:start;white-space:normal;clip-rule:nonzero;display:inline;overflow:visible;visibility:visible;opacity:1;isolation:auto;mix-blend-mode:normal;color-interpolation:sRGB;color-interpolation-filters:linearRGB;solid-color:#000000;solid-opacity:1;fill:#fd982f;fill-opacity:1;fill-rule:evenodd;stroke:none;stroke-width:0.26777294;stroke-linecap:round;stroke-linejoin:round;stroke-miterlimit:4;stroke-dasharray:none;stroke-dashoffset:0;stroke-opacity:1;color-rendering:auto;image-rendering:auto;shape-rendering:auto;text-rendering:auto;enable-background:accumulate" d="m -1402.0129,394.95952 0.8018,0.90793 a 0.13389983,0.13389983 0 0 0 0.084,0.0444 l 0.3086,0.0371 c -3e-4,0.0293 0,0.0586 5e-4,0.0879 a 0.13389986,0.13389986 0 0 0 0,0.002 c 0,0.3435 -0.014,0.69417 -0.074,1.02664 l -0.1752,-0.11819 a 0.13389983,0.13389983 0 0 0 -0.089,-0.0214 l 0,0 a 0.13389983,0.13389983 0 0 0 -0.054,0.0173 l -1.2113,0.72331 -1.2238,-1.10457 0.064,-1.17413 1.569,-0.42834 z" id="path32782"/>
      <path inkscape:connector-curvature="0" style="color:#000000;font-style:normal;font-variant:normal;font-weight:normal;font-stretch:normal;font-size:medium;line-height:normal;font-family:sans-serif;text-indent:0;text-align:start;text-decoration:none;text-decoration-line:none;text-decoration-style:solid;text-decoration-color:#000000;letter-spacing:normal;word-spacing:normal;text-transform:none;direction:ltr;block-progression:tb;writing-mode:lr-tb;baseline-shift:baseline;text-anchor:start;white-space:normal;clip-rule:nonzero;display:inline;overflow:visible;visibility:visible;opacity:1;isolation:auto;mix-blend-mode:normal;color-interpolation:sRGB;color-interpolation-filters:linearRGB;solid-color:#000000;solid-opacity:1;fill:#fd982f;fill-opacity:1;fill-rule:evenodd;stroke:none;stroke-width:0.26777294;stroke-linecap:round;stroke-linejoin:round;stroke-miterlimit:4;stroke-dasharray:none;stroke-dashoffset:0;stroke-opacity:1;color-rendering:auto;image-rendering:auto;shape-rendering:auto;text-rendering:auto;enable-background:accumulate" d="m -1403.8078,396.77537 1.194,1.0779 -0.8258,1.20132 a 0.13389983,0.13389983 0 0 0 -0.02,0.10565 l 0.088,0.40009 c -0.3346,0.14207 -0.6801,0.24601 -1.0303,0.28556 -0.2823,0.0319 -0.5713,0.0313 -0.8598,0.007 l 0.092,-0.42363 a 0.13389983,0.13389983 0 0 0 -0.039,-0.12709 l -1.0339,-0.94296 0.9435,-1.33522 1.491,-0.24894 z" id="path32780"/>
      <path inkscape:connector-curvature="0" style="color:#000000;font-style:normal;font-variant:normal;font-weight:normal;font-stretch:normal;font-size:medium;line-height:normal;font-family:sans-serif;text-indent:0;text-align:start;text-decoration:none;text-decoration-line:none;text-decoration-style:solid;text-decoration-color:#000000;letter-spacing:normal;word-spacing:normal;text-transform:none;direction:ltr;block-progression:tb;writing-mode:lr-tb;baseline-shift:baseline;text-anchor:start;white-space:normal;clip-rule:nonzero;display:inline;overflow:visible;visibility:visible;opacity:1;isolation:auto;mix-blend-mode:normal;color-interpolation:sRGB;color-interpolation-filters:linearRGB;solid-color:#000000;solid-opacity:1;fill:#9cc055;fill-opacity:1;fill-rule:evenodd;stroke:none;stroke-width:0.26777294;stroke-linecap:round;stroke-linejoin:round;stroke-miterlimit:4;stroke-dasharray:none;stroke-dashoffset:0;stroke-opacity:1;color-rendering:auto;image-rendering:auto;shape-rendering:auto;text-rendering:auto;enable-background:accumulate" d="m -1401.1473,397.21678 0.1919,0.13022 c -0.042,0.15011 -0.095,0.2948 -0.1658,0.43043 -0.2525,0.48688 -0.7179,0.88033 -1.1992,1.2029 -0.2549,0.17082 -0.5244,0.32988 -0.8028,0.46599 l -0.063,-0.28817 0.8384,-1.21806 a 0.13389983,0.13389983 0 0 0 0.017,-0.0162 l 1.1836,-0.70709 z" id="path32778"/>
      <path inkscape:connector-curvature="0" style="color:#000000;font-style:normal;font-variant:normal;font-weight:normal;font-stretch:normal;font-size:medium;line-height:normal;font-family:sans-serif;text-indent:0;text-align:start;text-decoration:none;text-decoration-line:none;text-decoration-style:solid;text-decoration-color:#000000;letter-spacing:normal;word-spacing:normal;text-transform:none;direction:ltr;block-progression:tb;writing-mode:lr-tb;baseline-shift:baseline;text-anchor:start;white-space:normal;clip-rule:nonzero;display:inline;overflow:visible;visibility:visible;opacity:1;isolation:auto;mix-blend-mode:normal;color-interpolation:sRGB;color-interpolation-filters:linearRGB;solid-color:#000000;solid-opacity:1;fill:#9cc055;fill-opacity:1;fill-rule:evenodd;stroke:none;stroke-width:0.26777294;stroke-linecap:round;stroke-linejoin:round;stroke-miterlimit:4;stroke-dasharray:none;stroke-dashoffset:0;stroke-opacity:1;color-rendering:auto;image-rendering:auto;shape-rendering:auto;text-rendering:auto;enable-background:accumulate" d="m -1407.9687,398.11529 1.4921,0.39434 1.0292,0.93773 -0.082,0.3729 a 0.13389983,0.13389983 0 0 0 -6e-4,0.003 c -0.493,-0.0685 -0.9794,-0.20868 -1.4256,-0.41108 -0.439,-0.19906 -0.832,-0.53706 -1.1328,-0.92413 -0.045,-0.0583 -0.085,-0.12169 -0.1277,-0.18305 0.038,-0.0273 0.08,-0.0571 0.1198,-0.0884 0.066,-0.0516 0.096,-0.0762 0.1271,-0.10146 z" id="path46887"/>
    </g>
  </g>

	<metadata>
		<rdf:RDF xmlns:rdf="http://www.w3.org/1999/02/22-rdf-syntax-ns#" xmlns:rdfs="http://www.w3.org/2000/01/rdf-schema#" xmlns:dc="http://purl.org/dc/elements/1.1/">
			<rdf:Description about="https://iconscout.com/legal#licenses" dc:title="football-soccer-game-sports" dc:description="football-soccer-game-sports" dc:publisher="Iconscout" dc:date="2017-04-29" dc:format="image/svg+xml" dc:language="en">
				<dc:creator>
					<rdf:Bag>
						<rdf:li>Vignesh Oviyan</rdf:li>
					</rdf:Bag>
				</dc:creator>
			</rdf:Description>
		</rdf:RDF>
    </metadata></svg>
